<svg id="visual" viewBox="0 0 960 540" width="960" height="540" xmlns="http://www.w3.org/2000/svg" xmlns:xlink="http://www.w3.org/1999/xlink" version="1.1"><rect x="0" y="0" width="960" height="540" fill="#202020"></rect><path d="M0 111L16 108.2C32 105.3 64 99.7 96 95.7C128 91.7 160 89.3 192 88.7C224 88 256 89 288 95.3C320 101.7 352 113.3 384 117.5C416 121.7 448 118.3 480 111.2C512 104 544 93 576 89.7C608 86.3 640 90.7 672 97.3C704 104 736 113 768 111.2C800 109.3 832 96.7 864 92.2C896 87.7 928 91.3 944 93.2L960 95L960 0L944 0C928 0 896 0 864 0C832 0 800 0 768 0C736 0 704 0 672 0C640 0 608 0 576 0C544 0 512 0 480 0C448 0 416 0 384 0C352 0 320 0 288 0C256 0 224 0 192 0C160 0 128 0 96 0C64 0 32 0 16 0L0 0Z" fill="#61429a"></path><path d="M0 75L16 80C32 85 64 95 96 99C128 103 160 101 192 96.3C224 91.7 256 84.3 288 81.7C320 79 352 81 384 82.7C416 84.3 448 85.7 480 86.7C512 87.7 544 88.3 576 87.5C608 86.7 640 84.3 672 81C704 77.7 736 73.3 768 77.3C800 81.3 832 93.7 864 99.2C896 104.7 928 103.3 944 102.7L960 102L960 0L944 0C928 0 896 0 864 0C832 0 800 0 768 0C736 0 704 0 672 0C640 0 608 0 576 0C544 0 512 0 480 0C448 0 416 0 384 0C352 0 320 0 288 0C256 0 224 0 192 0C160 0 128 0 96 0C64 0 32 0 16 0L0 0Z" fill="#7542ab"></path><path d="M0 67L16 65.7C32 64.3 64 61.7 96 59.7C128 57.7 160 56.3 192 55.3C224 54.3 256 53.7 288 53.3C320 53 352 53 384 57.5C416 62 448 71 480 72C512 73 544 66 576 60.8C608 55.7 640 52.3 672 56.5C704 60.7 736 72.3 768 74.7C800 77 832 70 864 67.2C896 64.3 928 65.7 944 66.3L960 67L960 0L944 0C928 0 896 0 864 0C832 0 800 0 768 0C736 0 704 0 672 0C640 0 608 0 576 0C544 0 512 0 480 0C448 0 416 0 384 0C352 0 320 0 288 0C256 0 224 0 192 0C160 0 128 0 96 0C64 0 32 0 16 0L0 0Z" fill="#8b3fba"></path><path d="M0 61L16 57.8C32 54.7 64 48.3 96 44.8C128 41.3 160 40.7 192 42.8C224 45 256 50 288 49.8C320 49.7 352 44.3 384 45C416 45.7 448 52.3 480 53.3C512 54.3 544 49.7 576 44.8C608 40 640 35 672 32.7C704 30.3 736 30.7 768 32.7C800 34.7 832 38.3 864 42.8C896 47.3 928 52.7 944 55.3L960 58L960 0L944 0C928 0 896 0 864 0C832 0 800 0 768 0C736 0 704 0 672 0C640 0 608 0 576 0C544 0 512 0 480 0C448 0 416 0 384 0C352 0 320 0 288 0C256 0 224 0 192 0C160 0 128 0 96 0C64 0 32 0 16 0L0 0Z" fill="#a339c7"></path><path d="M0 13L16 13.7C32 14.3 64 15.7 96 20C128 24.3 160 31.7 192 33.3C224 35 256 31 288 28.8C320 26.7 352 26.3 384 26.5C416 26.7 448 27.3 480 27.3C512 27.3 544 26.7 576 25.7C608 24.7 640 23.3 672 21.2C704 19 736 16 768 15.7C800 15.3 832 17.7 864 17.7C896 17.7 928 15.3 944 14.2L960 13L960 0L944 0C928 0 896 0 864 0C832 0 800 0 768 0C736 0 704 0 672 0C640 0 608 0 576 0C544 0 512 0 480 0C448 0 416 0 384 0C352 0 320 0 288 0C256 0 224 0 192 0C160 0 128 0 96 0C64 0 32 0 16 0L0 0Z" fill="#bd2cd3"></path></svg>