<svg id="visual" viewBox="0 0 960 540" width="960" height="540" xmlns="http://www.w3.org/2000/svg" xmlns:xlink="http://www.w3.org/1999/xlink" version="1.1"><rect x="0" y="0" width="960" height="540" fill="#202020"></rect><path d="M0 335L16 335.2C32 335.3 64 335.7 96 333C128 330.3 160 324.7 192 328.7C224 332.7 256 346.3 288 346C320 345.7 352 331.3 384 336C416 340.7 448 364.3 480 371C512 377.7 544 367.3 576 365.7C608 364 640 371 672 366C704 361 736 344 768 341.7C800 339.3 832 351.7 864 354.8C896 358 928 352 944 349L960 346L960 541L944 541C928 541 896 541 864 541C832 541 800 541 768 541C736 541 704 541 672 541C640 541 608 541 576 541C544 541 512 541 480 541C448 541 416 541 384 541C352 541 320 541 288 541C256 541 224 541 192 541C160 541 128 541 96 541C64 541 32 541 16 541L0 541Z" fill="#61429a"></path><path d="M0 418L16 413.7C32 409.3 64 400.7 96 397C128 393.3 160 394.7 192 399C224 403.3 256 410.7 288 409.7C320 408.7 352 399.3 384 396.2C416 393 448 396 480 391.8C512 387.7 544 376.3 576 379.2C608 382 640 399 672 403.3C704 407.7 736 399.3 768 396C800 392.7 832 394.3 864 393.7C896 393 928 390 944 388.5L960 387L960 541L944 541C928 541 896 541 864 541C832 541 800 541 768 541C736 541 704 541 672 541C640 541 608 541 576 541C544 541 512 541 480 541C448 541 416 541 384 541C352 541 320 541 288 541C256 541 224 541 192 541C160 541 128 541 96 541C64 541 32 541 16 541L0 541Z" fill="#7542ab"></path><path d="M0 422L16 419.5C32 417 64 412 96 414.8C128 417.7 160 428.3 192 430.8C224 433.3 256 427.7 288 429.3C320 431 352 440 384 440.3C416 440.7 448 432.3 480 426.3C512 420.3 544 416.7 576 422.2C608 427.7 640 442.3 672 445.8C704 449.3 736 441.7 768 441.3C800 441 832 448 864 446.8C896 445.7 928 436.3 944 431.7L960 427L960 541L944 541C928 541 896 541 864 541C832 541 800 541 768 541C736 541 704 541 672 541C640 541 608 541 576 541C544 541 512 541 480 541C448 541 416 541 384 541C352 541 320 541 288 541C256 541 224 541 192 541C160 541 128 541 96 541C64 541 32 541 16 541L0 541Z" fill="#8b3fba"></path><path d="M0 457L16 456.3C32 455.7 64 454.3 96 456.5C128 458.7 160 464.3 192 467C224 469.7 256 469.3 288 468.5C320 467.7 352 466.3 384 469C416 471.7 448 478.3 480 477.3C512 476.3 544 467.7 576 467.2C608 466.7 640 474.3 672 478.3C704 482.3 736 482.7 768 482.8C800 483 832 483 864 475C896 467 928 451 944 443L960 435L960 541L944 541C928 541 896 541 864 541C832 541 800 541 768 541C736 541 704 541 672 541C640 541 608 541 576 541C544 541 512 541 480 541C448 541 416 541 384 541C352 541 320 541 288 541C256 541 224 541 192 541C160 541 128 541 96 541C64 541 32 541 16 541L0 541Z" fill="#a339c7"></path><path d="M0 502L16 504.2C32 506.3 64 510.7 96 507.5C128 504.3 160 493.7 192 490.2C224 486.7 256 490.3 288 494.2C320 498 352 502 384 501.8C416 501.7 448 497.3 480 498.2C512 499 544 505 576 507.3C608 509.7 640 508.3 672 503.5C704 498.7 736 490.3 768 487.2C800 484 832 486 864 491C896 496 928 504 944 508L960 512L960 541L944 541C928 541 896 541 864 541C832 541 800 541 768 541C736 541 704 541 672 541C640 541 608 541 576 541C544 541 512 541 480 541C448 541 416 541 384 541C352 541 320 541 288 541C256 541 224 541 192 541C160 541 128 541 96 541C64 541 32 541 16 541L0 541Z" fill="#bd2cd3"></path></svg>